<?xml version="1.0" standalone="no"?>
<!DOCTYPE svg PUBLIC "-//W3C//DTD SVG 20010904//EN"
 "http://www.w3.org/TR/2001/REC-SVG-20010904/DTD/svg10.dtd">
<svg version="1.0" xmlns="http://www.w3.org/2000/svg"
 width="1142.000000pt" height="218.000000pt" viewBox="0 0 1142.000000 218.000000"
 preserveAspectRatio="xMidYMid meet">

<g transform="translate(0.000000,218.000000) scale(0.100000,-0.100000)"
fill="#000000" stroke="none">
<path d="M995 2174 c-120 -10 -192 -26 -255 -58 -99 -50 -151 -72 -199 -86
-34 -9 -68 -34 -145 -107 -56 -52 -118 -114 -140 -136 -60 -66 -154 -215 -186
-298 -34 -88 -55 -229 -47 -310 10 -89 65 -386 82 -434 45 -134 25 -238 -59
-297 l-46 -32 0 -86 c0 -79 2 -88 28 -116 55 -60 147 -100 299 -130 13 -2 34
-22 48 -44 l25 -40 158 0 c124 0 162 3 178 15 25 19 53 19 60 0 5 -13 56 -15
374 -15 249 0 371 3 375 11 4 5 19 8 33 4 17 -3 42 2 67 15 21 11 45 20 52 20
11 0 33 9 130 53 12 5 24 16 27 24 4 10 -1 10 -26 -3 -280 -145 -750 -137
-1068 18 -126 61 -278 218 -212 218 10 0 27 7 38 15 17 13 16 14 -15 4 -41
-14 -144 -6 -200 17 -73 29 -121 107 -121 198 0 90 54 146 141 146 43 0 127
-39 109 -50 -6 -3 4 -16 21 -29 17 -13 33 -20 37 -17 3 4 -4 27 -17 53 -12 26
-24 67 -26 91 -2 24 -6 46 -9 49 -2 2 7 28 20 56 25 55 30 87 14 87 -5 0 -7
13 -3 31 4 20 1 34 -6 39 -10 5 -8 17 8 49 23 44 21 58 -11 70 -18 6 -14 14
41 88 34 44 61 83 61 87 0 3 -7 6 -15 6 -18 0 -19 11 -2 33 11 16 15 15 48
-13 42 -34 79 -50 115 -50 33 0 30 11 -12 38 -20 13 -42 39 -51 60 -21 50 -13
152 17 217 l23 50 8 -45 c5 -25 17 -56 27 -70 25 -33 80 -70 105 -70 l20 0
-20 23 c-35 38 -46 70 -46 131 1 71 14 84 107 113 76 23 293 23 349 -1 31 -13
38 -12 63 3 51 30 124 53 142 45 9 -4 57 -13 106 -20 66 -8 94 -17 105 -31 9
-10 49 -41 88 -69 107 -75 116 -89 115 -184 0 -43 -3 -89 -7 -101 -10 -31 13
-20 33 16 9 17 18 32 20 35 2 3 9 -3 16 -12 7 -10 16 -15 19 -11 8 8 9 5 12
-82 2 -38 13 -105 25 -147 11 -43 19 -82 15 -87 -3 -6 1 -42 10 -82 8 -40 13
-74 11 -76 -2 -3 -42 7 -88 21 -45 14 -105 29 -131 32 -26 4 -50 10 -52 14 -6
9 93 53 168 75 61 17 70 33 43 70 -13 18 -17 18 -112 -19 -55 -21 -107 -39
-116 -39 -9 -1 -15 -3 -13 -6 3 -2 -19 -20 -48 -41 -49 -35 -61 -59 -39 -82 4
-4 64 -18 134 -32 70 -14 158 -37 195 -51 59 -22 69 -24 78 -11 17 23 73 -86
81 -158 l7 -58 13 39 c16 46 17 56 4 48 -5 -3 -10 2 -10 12 0 10 -16 49 -35
87 -25 50 -33 76 -28 95 5 23 4 24 -9 13 -13 -11 -17 -6 -27 32 -15 60 -14 76
4 76 8 0 15 3 15 8 0 4 -5 50 -10 102 -5 52 -10 133 -11 180 -2 85 -2 85 24
88 43 5 41 29 -6 50 -55 25 -61 32 -98 137 -71 202 -103 248 -244 342 -84 57
-130 76 -220 91 -33 5 -85 19 -115 30 -156 58 -285 78 -435 66z m-538 -2120
c-3 -3 -12 -4 -19 -1 -8 3 -5 6 6 6 11 1 17 -2 13 -5z"/>
<path d="M2825 1894 c-379 -39 -445 -50 -490 -82 -22 -15 -55 -48 -73 -72 -34
-45 -35 -45 -28 -125 3 -44 18 -142 33 -218 23 -122 30 -140 52 -156 46 -32
98 -44 166 -36 116 12 218 33 226 46 13 22 20 5 45 -118 39 -190 43 -205 57
-257 14 -54 23 -62 78 -71 29 -4 38 -11 43 -30 5 -18 13 -25 29 -24 17 1 18 2
5 6 -17 4 -22 18 -21 51 1 6 -3 12 -7 12 -4 0 -13 33 -20 74 -16 95 -22 106
-49 81 -31 -27 -36 -12 -7 20 26 28 31 49 20 80 -6 14 -8 13 -21 -5 -8 -11
-21 -20 -29 -20 -21 0 -17 9 11 32 16 13 25 29 25 48 0 35 -13 45 -30 25 -7
-8 -19 -15 -28 -15 -10 0 -7 7 12 25 14 13 26 33 26 45 0 24 -8 25 -32 3 -10
-9 -21 -13 -26 -9 -4 4 5 17 21 28 15 11 27 28 27 39 0 23 15 25 24 4 4 -12
24 -15 88 -15 120 0 147 10 212 81 56 61 78 103 30 58 l-26 -24 4 25 c2 16 11
26 27 30 14 3 27 12 29 19 3 10 -3 11 -26 7 l-29 -7 -37 193 c-21 106 -39 199
-42 207 -3 10 3 12 23 6 16 -3 32 -10 37 -15 5 -5 21 -72 36 -149 30 -149 44
-197 34 -116 -9 74 -43 242 -55 269 -6 12 -23 30 -37 38 -57 33 -91 35 -307
12z m232 0 c-3 -3 -88 -17 -189 -30 -101 -13 -210 -28 -243 -33 -108 -18 -215
-24 -215 -13 0 12 27 16 345 52 252 29 312 34 302 24z m13 -28 c0 -2 18 -96
40 -207 22 -112 36 -206 32 -210 -4 -4 -106 -17 -227 -29 -121 -12 -254 -28
-295 -35 l-75 -14 96 5 c52 2 151 11 220 18 68 8 161 18 207 22 78 6 82 6 82
-14 0 -31 -15 -36 -130 -39 -58 -1 -159 -9 -225 -18 -297 -38 -309 -39 -312
-28 -3 7 -11 9 -18 7 -16 -7 -89 15 -81 24 3 3 1 11 -4 17 -6 7 -17 58 -25
115 -9 56 -22 136 -30 178 -8 42 -11 79 -7 83 4 4 24 14 45 23 43 17 39 22 57
-72 17 -82 23 -73 12 18 -10 86 -14 83 134 100 55 6 185 21 289 34 230 28 215
27 215 22z m-680 -57 c0 -11 -69 -43 -77 -36 -4 5 57 47 70 47 4 0 7 -5 7 -11z
m-44 -477 c-26 -27 -36 -3 -23 58 l11 55 14 -49 c12 -43 12 -50 -2 -64z m106
-30 c4 -4 -5 -23 -20 -41 l-28 -33 -31 19 c-30 18 -30 19 -16 47 13 25 19 28
51 23 19 -4 39 -10 44 -15z m132 -27 c3 -8 1 -15 -4 -15 -5 0 -15 -6 -22 -14
-8 -7 -38 -17 -68 -21 l-54 -7 15 23 c9 13 19 30 23 37 11 18 102 16 110 -3z
m314 -375 c-7 -11 -21 -20 -30 -20 -25 0 -22 13 5 26 33 17 38 16 25 -6z"/>
<path d="M1787 1427 c-55 -75 -126 -143 -169 -161 -24 -11 -27 -14 -13 -20 46
-17 101 21 167 117 35 51 74 127 65 127 -2 0 -24 -29 -50 -63z"/>
<path d="M852 1393 c-53 -18 -49 -28 5 -14 54 15 83 4 239 -84 72 -41 142 -75
153 -75 25 0 71 42 71 65 0 12 -4 11 -20 -5 -11 -11 -29 -20 -40 -20 -11 0
-66 23 -123 51 -97 49 -219 100 -235 98 -4 0 -26 -7 -50 -16z"/>
<path d="M1380 1302 c0 -13 -7 -34 -16 -47 -11 -17 -12 -25 -5 -25 18 0 45 70
32 83 -8 8 -11 5 -11 -11z"/>
<path d="M840 1073 c0 -43 26 -60 112 -73 98 -14 208 -40 208 -49 0 -3 -65
-39 -145 -79 -143 -71 -145 -72 -145 -105 0 -66 9 -64 219 45 108 55 202 106
209 113 20 18 4 65 -27 77 -14 6 -44 20 -65 31 -23 12 -36 15 -31 7 6 -10 1
-11 -21 -6 -74 19 -204 45 -256 51 -53 7 -58 6 -58 -12z"/>
<path d="M2840 750 c-14 -4 -19 -8 -11 -9 9 -1 12 -11 9 -35 -2 -20 0 -32 6
-29 5 4 7 -6 4 -22 -4 -17 3 -48 18 -82 14 -30 22 -58 19 -63 -3 -4 2 -24 11
-45 9 -24 12 -41 6 -48 -6 -7 -13 -54 -17 -105 l-7 -93 42 3 c50 3 84 38 83
85 -1 52 -23 115 -44 120 -26 7 -24 21 4 25 24 3 35 44 21 76 -7 16 -8 26 -12
64 -1 11 -14 19 -37 24 -19 3 -35 10 -35 14 0 9 36 20 69 20 13 0 21 3 17 7
-4 4 -25 6 -46 4 -30 -2 -40 1 -40 12 0 17 21 27 56 27 13 0 24 5 24 11 0 10
-37 9 -65 -2 -5 -2 -11 1 -13 6 -2 6 -10 14 -18 18 -8 5 -12 12 -9 18 7 10 0
10 -35 -1z"/>
<path d="M1409 687 c-130 -49 -228 -183 -279 -381 -26 -104 -25 -119 9 -158
35 -40 98 -64 205 -79 136 -18 218 3 280 71 83 92 123 383 67 477 -39 63 -196
102 -282 70z m207 -35 c40 -20 71 -48 62 -57 -2 -2 -26 3 -53 11 -66 20 -243
14 -300 -11 -35 -15 -38 -15 -25 -1 21 26 69 58 109 73 50 19 156 11 207 -15z
m-428 -457 c27 -13 78 -31 113 -40 83 -19 238 -20 284 -1 50 21 43 1 -11 -34
-59 -37 -129 -46 -236 -30 -132 19 -208 60 -208 112 0 23 -1 23 58 -7z"/>
<path d="M2625 670 c-19 -21 -7 -28 13 -8 9 9 12 8 12 -4 0 -21 -66 -99 -107
-127 -31 -20 -33 -25 -33 -76 0 -30 -4 -55 -10 -55 -5 0 -10 15 -10 34 0 44
-12 51 -49 32 -25 -14 -31 -14 -41 -1 -10 13 -16 12 -42 -1 -16 -9 -27 -18
-25 -21 3 -3 1 -11 -6 -18 -14 -14 -97 -11 -128 5 -45 25 -55 20 -83 -38 -36
-74 -77 -125 -140 -174 -27 -22 -51 -47 -52 -56 -4 -35 -14 -118 -17 -137 -2
-19 5 -20 165 -23 l167 -2 22 41 c29 57 123 170 162 194 100 62 317 247 317
270 0 7 7 15 15 19 21 8 19 23 -5 44 -12 9 -28 41 -36 70 -14 47 -18 52 -43
52 -15 0 -36 -9 -46 -20z m15 -84 c0 -3 -4 -8 -10 -11 -5 -3 -10 -1 -10 4 0 6
5 11 10 11 6 0 10 -2 10 -4z m-84 -93 c-35 -34 -36 -34 -36 -12 0 16 12 32 33
47 45 31 48 8 3 -35z m-60 -145 c5 -23 3 -28 -12 -28 -31 0 -113 35 -136 57
-29 29 -17 49 32 57 24 4 52 13 63 21 20 14 22 13 34 -33 7 -26 16 -59 19 -74z"/>
<path d="M2196 646 c-25 -39 -30 -72 -12 -79 35 -14 106 35 106 72 0 14 -5 18
-19 14 -10 -3 -28 0 -39 6 -17 9 -23 7 -36 -13z"/>
<path d="M2763 663 c9 -2 23 -2 30 0 6 3 -1 5 -18 5 -16 0 -22 -2 -12 -5z"/>
<path d="M348 639 c-31 -17 -19 -28 13 -12 18 9 42 13 60 9 19 -3 28 -2 24 4
-8 13 -75 12 -97 -1z"/>
<path d="M2559 613 c-13 -16 -12 -17 4 -4 16 13 21 21 13 21 -2 0 -10 -8 -17
-17z"/>
</g>
</svg>
